<svg width="14" height="15" viewBox="0 0 14 15" fill="none" xmlns="http://www.w3.org/2000/svg">
<path d="M7.00039 3.12498C7.00039 2.35178 6.37359 1.72498 5.60039 1.72498C4.82719 1.72498 4.20039 2.35178 4.20039 3.12498C4.20039 3.89817 4.82719 4.52498 5.60039 4.52498C6.37359 4.52498 7.00039 3.89817 7.00039 3.12498Z" fill="#888891"/>
<path d="M12.0754 3.64998C12.3653 3.64998 12.6004 3.41492 12.6004 3.12498C12.6004 2.83503 12.3653 2.59998 12.0754 2.59998L8.22539 2.59998C7.93544 2.59998 7.70039 2.83503 7.70039 3.12498C7.70039 3.41492 7.93544 3.64998 8.22539 3.64998L12.0754 3.64998Z" fill="#888891"/>
<path d="M3.50039 3.12498C3.50039 3.41492 3.26534 3.64998 2.97539 3.64998H1.92539C1.63544 3.64998 1.40039 3.41492 1.40039 3.12498C1.40039 2.83503 1.63544 2.59998 1.92539 2.59998L2.97539 2.59998C3.26534 2.59998 3.50039 2.83503 3.50039 3.12498Z" fill="#888891"/>
<path d="M2.97539 12.4C3.26534 12.4 3.50039 12.1649 3.50039 11.875C3.50039 11.585 3.26534 11.35 2.97539 11.35H1.92539C1.63544 11.35 1.40039 11.585 1.40039 11.875C1.40039 12.1649 1.63544 12.4 1.92539 12.4H2.97539Z" fill="#888891"/>
<path d="M12.0754 12.4C12.3653 12.4 12.6004 12.1649 12.6004 11.875C12.6004 11.585 12.3653 11.35 12.0754 11.35H8.22539C7.93544 11.35 7.70039 11.585 7.70039 11.875C7.70039 12.1649 7.93544 12.4 8.22539 12.4H12.0754Z" fill="#888891"/>
<path d="M6.30039 7.49998C6.30039 7.78992 6.06534 8.02497 5.77539 8.02497H1.92539C1.63544 8.02497 1.40039 7.78992 1.40039 7.49998C1.40039 7.21003 1.63544 6.97497 1.92539 6.97497L5.77539 6.97498C6.06534 6.97498 6.30039 7.21003 6.30039 7.49998Z" fill="#888891"/>
<path d="M12.0754 8.02497C12.3653 8.02497 12.6004 7.78992 12.6004 7.49998C12.6004 7.21003 12.3653 6.97498 12.0754 6.97498H11.0254C10.7354 6.97498 10.5004 7.21003 10.5004 7.49998C10.5004 7.78992 10.7354 8.02497 11.0254 8.02497H12.0754Z" fill="#888891"/>
<path d="M9.80039 7.49998C9.80039 6.72678 9.17359 6.09998 8.40039 6.09998C7.62719 6.09998 7.00039 6.72678 7.00039 7.49998C7.00039 8.27317 7.62719 8.89997 8.40039 8.89997C9.17359 8.89997 9.80039 8.27317 9.80039 7.49998Z" fill="#888891"/>
<path d="M7.00039 11.875C7.00039 11.1018 6.37359 10.475 5.60039 10.475C4.82719 10.475 4.20039 11.1018 4.20039 11.875C4.20039 12.6482 4.82719 13.275 5.60039 13.275C6.37359 13.275 7.00039 12.6482 7.00039 11.875Z" fill="#888891"/>
</svg>
