<svg width="119" height="11" viewBox="0 0 119 11" fill="none" xmlns="http://www.w3.org/2000/svg">
<path fill-rule="evenodd" clip-rule="evenodd" d="M107.272 6.46494H107.14L105.432 1.5127H103.432V1.71745L105.841 8.6332H108.497L110.906 1.71745V1.5127H108.993L107.269 6.46494H107.272Z" fill="white"/>
<path d="M102.9 1.5127H100.911V8.63245H102.9V1.5127Z" fill="white"/>
<path fill-rule="evenodd" clip-rule="evenodd" d="M116.816 1.51172H116.817L115.094 6.46547H114.963L113.254 1.51322H111.254V1.71947L113.871 9.23297H111.393V10.8822H113.814C114.849 10.8822 115.654 10.5335 116.045 9.42047C116.097 9.27197 118.728 1.71797 118.728 1.71797V1.51172H116.815H116.816Z" fill="white"/>
<path fill-rule="evenodd" clip-rule="evenodd" d="M90.7747 1.31909C89.8702 1.31909 89.025 1.77959 88.4977 2.64509H88.3755V1.52009H86.4795V10.8793H88.494V7.72634H88.6177C88.6312 7.74509 88.6447 7.76459 88.6582 7.78034C88.998 8.19359 89.7915 8.82359 90.7785 8.82359C92.5747 8.82359 93.8033 7.27109 93.8033 5.07209C93.8033 2.87309 92.514 1.31984 90.7747 1.31984V1.31909ZM90.1732 7.28009C89.2357 7.28009 88.5885 6.54959 88.5885 5.07284C88.5885 3.59609 89.2357 2.86559 90.1732 2.86559C91.1107 2.86559 91.7895 3.61184 91.7895 5.07284C91.7895 6.53384 91.1265 7.28009 90.1732 7.28009Z" fill="white"/>
<path fill-rule="evenodd" clip-rule="evenodd" d="M98.7996 1.51172C97.8658 1.51172 97.2666 1.66772 96.9163 2.64497H96.7963V1.51247H93.9126V3.14747H94.5561C94.7683 3.14747 94.8726 3.22247 94.8996 3.39647V4.75547H94.9071V8.63297H96.9216V4.85597C96.9216 3.87797 97.1871 3.27872 98.1651 3.27872H100.276V1.51172H98.8003H98.7996Z" fill="white"/>
<path d="M76.0322 8.81909C78.1037 8.81909 79.7822 7.14059 79.7822 5.06909C79.7822 2.99759 78.1037 1.31909 76.0322 1.31909C73.9607 1.31909 72.2822 2.99759 72.2822 5.06909C72.2822 7.14059 73.9607 8.81909 76.0322 8.81909Z" fill="white"/>
<path d="M76.0325 11.0001C77.4477 11.0001 78.5952 10.7594 78.5952 10.4609C78.5952 10.1624 77.4477 9.92163 76.0325 9.92163C74.6172 9.92163 73.4697 10.1624 73.4697 10.4609C73.4697 10.7594 74.6172 11.0001 76.0325 11.0001Z" fill="white"/>
<path d="M0.271973 8.63007V0.716064H3.09346C3.70921 0.716064 4.21922 0.828564 4.62347 1.05206C5.02772 1.27556 5.33071 1.58231 5.53171 1.97006C5.73271 2.35781 5.83322 2.79356 5.83322 3.27806C5.83322 3.76256 5.73196 4.20281 5.53021 4.59056C5.32771 4.97831 5.02397 5.28506 4.61822 5.51006C4.21247 5.73581 3.70248 5.84831 3.08973 5.84831H1.14947V4.83581H2.98171C3.37096 4.83581 3.68597 4.76831 3.92822 4.63331C4.17047 4.49831 4.34821 4.31306 4.46146 4.07831C4.57471 3.84431 4.63171 3.57731 4.63171 3.27806C4.63171 2.97881 4.57471 2.71406 4.46146 2.48231C4.34821 2.25056 4.16972 2.06906 3.92597 1.93706C3.68297 1.80581 3.36197 1.73981 2.96597 1.73981H1.46672V8.63007H0.272723H0.271973Z" fill="white"/>
<path d="M7.13552 8.62996V2.69446H8.25226V3.63721H8.31376C8.42176 3.31771 8.61301 3.06571 8.88751 2.88196C9.16201 2.69746 9.47252 2.60596 9.82052 2.60596C9.89252 2.60596 9.97802 2.60821 10.0778 2.61346C10.1768 2.61871 10.2548 2.62471 10.3118 2.63296V3.73846C10.2653 3.72571 10.1828 3.71071 10.0643 3.69421C9.94577 3.67696 9.82727 3.66946 9.70877 3.66946C9.43577 3.66946 9.19276 3.72646 8.98051 3.84121C8.76826 3.95596 8.59951 4.11421 8.47576 4.31671C8.35201 4.51921 8.29051 4.74871 8.29051 5.00671V8.63146H7.13477L7.13552 8.62996Z" fill="white"/>
<path d="M13.6002 8.74994C13.0437 8.74994 12.5585 8.62244 12.1437 8.36744C11.729 8.11244 11.4065 7.75544 11.1777 7.29719C10.9482 6.83819 10.8335 6.30269 10.8335 5.68919C10.8335 5.07569 10.9482 4.53494 11.1777 4.07369C11.4072 3.61244 11.729 3.25469 12.1437 2.99969C12.5585 2.74469 13.0437 2.61719 13.6002 2.61719C14.1567 2.61719 14.642 2.74469 15.0575 2.99969C15.4722 3.25469 15.794 3.61244 16.0235 4.07369C16.253 4.53494 16.3677 5.07344 16.3677 5.68919C16.3677 6.30494 16.253 6.83819 16.0235 7.29719C15.794 7.75619 15.4722 8.11244 15.0575 8.36744C14.6427 8.62244 14.1575 8.74994 13.6002 8.74994ZM13.6047 7.78019C13.9655 7.78019 14.264 7.68494 14.501 7.49444C14.738 7.30394 14.9135 7.04969 15.0282 6.73319C15.143 6.41594 15.2 6.06719 15.2 5.68544C15.2 5.30369 15.1422 4.95794 15.0282 4.63994C14.9135 4.32119 14.738 4.06619 14.501 3.87269C14.264 3.67994 13.9647 3.58319 13.6047 3.58319C13.2447 3.58319 12.9402 3.67994 12.7025 3.87269C12.464 4.06619 12.2877 4.32194 12.173 4.63994C12.0582 4.95794 12.0012 5.30669 12.0012 5.68544C12.0012 6.06419 12.059 6.41594 12.173 6.73319C12.2877 7.04969 12.464 7.30394 12.7025 7.49444C12.941 7.68494 13.2417 7.78019 13.6047 7.78019Z" fill="white"/>
<path d="M20.4254 2.69446V3.62146H17.1831V2.69446H20.4254ZM18.0524 1.27246H19.2081V6.88771C19.2081 7.11196 19.2411 7.27996 19.3086 7.39246C19.3754 7.50421 19.4624 7.58071 19.5696 7.62046C19.6769 7.66021 19.7931 7.68046 19.9191 7.68046C20.0121 7.68046 20.0931 7.67371 20.1629 7.66096C20.2326 7.64821 20.2866 7.63771 20.3248 7.63021L20.5333 8.58421C20.4666 8.61046 20.3713 8.63671 20.2476 8.66371C20.1238 8.69071 19.9694 8.70571 19.7841 8.70796C19.4804 8.71321 19.1969 8.65921 18.9336 8.54521C18.6711 8.43196 18.4581 8.25721 18.2961 8.01946C18.1334 7.78246 18.0531 7.48471 18.0531 7.12696V1.27246H18.0524Z" fill="white"/>
<path d="M24.1968 8.75016C23.6118 8.75016 23.1086 8.62491 22.6878 8.37366C22.2663 8.12241 21.9423 7.76841 21.7136 7.31091C21.4856 6.85341 21.3716 6.31716 21.3716 5.70141C21.3716 5.08566 21.4856 4.55766 21.7136 4.09416C21.9416 3.63066 22.2611 3.26841 22.6721 3.00816C23.0831 2.74791 23.5638 2.61816 24.1158 2.61816C24.4503 2.61816 24.7751 2.67366 25.0901 2.78466C25.4043 2.89491 25.6863 3.06891 25.9361 3.30591C26.1858 3.54291 26.3831 3.84966 26.5271 4.22766C26.6711 4.60491 26.7431 5.06316 26.7431 5.60166V6.01116H22.0248V5.14491H25.6113C25.6113 4.84116 25.5498 4.57116 25.4261 4.33566C25.3023 4.09941 25.1291 3.91341 24.9063 3.77691C24.6836 3.64041 24.4226 3.57216 24.1241 3.57216C23.7993 3.57216 23.5166 3.65166 23.2758 3.80991C23.0351 3.96816 22.8498 4.17441 22.7193 4.42866C22.5888 4.68291 22.5243 4.95741 22.5243 5.25366V5.93016C22.5243 6.32691 22.5948 6.66441 22.7351 6.94266C22.8753 7.22091 23.0718 7.43316 23.3246 7.57791C23.5766 7.72341 23.8721 7.79616 24.2096 7.79616C24.4286 7.79616 24.6281 7.76391 24.8088 7.70166C24.9896 7.63866 25.1448 7.54416 25.2761 7.41741C25.4073 7.29141 25.5078 7.13541 25.5776 6.95016L26.6711 7.14666C26.5833 7.46916 26.4266 7.75041 26.2016 7.99116C25.9758 8.23191 25.6938 8.41866 25.3556 8.55141C25.0166 8.68416 24.6311 8.75016 24.1983 8.75016H24.1968Z" fill="white"/>
<path d="M30.5309 8.75016C29.9564 8.75016 29.4622 8.61966 29.0489 8.35791C28.6357 8.09616 28.3177 7.73541 28.0964 7.27416C27.8744 6.81366 27.7642 6.28491 27.7642 5.69016C27.7642 5.09541 27.8774 4.55466 28.1039 4.09191C28.3304 3.62916 28.6499 3.26841 29.0624 3.00816C29.4749 2.74791 29.9602 2.61816 30.5197 2.61816C30.9704 2.61816 31.3724 2.70141 31.7256 2.86716C32.0781 3.03366 32.3639 3.26616 32.5814 3.56466C32.7989 3.86316 32.9287 4.21266 32.9699 4.61241H31.8457C31.7842 4.33416 31.6431 4.09491 31.4226 3.89391C31.2021 3.69291 30.9082 3.59241 30.5399 3.59241C30.2174 3.59241 29.9362 3.67641 29.6954 3.84516C29.4547 4.01391 29.2672 4.25391 29.1329 4.56366C28.9987 4.87416 28.9319 5.24091 28.9319 5.66316C28.9319 6.08541 28.9979 6.46941 29.1292 6.78441C29.2604 7.09866 29.4464 7.34241 29.6879 7.51491C29.9287 7.68741 30.2129 7.77366 30.5399 7.77366C30.7589 7.77366 30.9577 7.73316 31.1369 7.65216C31.3162 7.57116 31.4669 7.45416 31.5892 7.30266C31.7114 7.15116 31.7969 6.96741 31.8464 6.75366H32.9707C32.9294 7.13766 32.8042 7.48041 32.5957 7.78191C32.3872 8.08341 32.1082 8.32041 31.7587 8.49291C31.4099 8.66541 31.0004 8.75166 30.5317 8.75166L30.5309 8.75016Z" fill="white"/>
<path d="M36.9805 2.69446V3.62146H33.7383V2.69446H36.9805ZM34.6075 1.27246H35.7633V6.88771C35.7633 7.11196 35.797 7.27996 35.8638 7.39246C35.9305 7.50421 36.0175 7.58071 36.1248 7.62046C36.232 7.66021 36.3483 7.68046 36.4743 7.68046C36.5673 7.68046 36.6483 7.67371 36.7173 7.66096C36.787 7.64821 36.841 7.63771 36.88 7.63021L37.0885 8.58421C37.021 8.61046 36.9258 8.63671 36.8028 8.66371C36.679 8.69071 36.5245 8.70571 36.3393 8.70796C36.0355 8.71321 35.752 8.65921 35.4888 8.54521C35.2263 8.43196 35.0133 8.25721 34.8513 8.01946C34.6893 7.78246 34.6083 7.48471 34.6083 7.12696V1.27246H34.6075Z" fill="white"/>
<path d="M40.7525 8.75016C40.1675 8.75016 39.665 8.62491 39.2435 8.37366C38.822 8.12241 38.498 7.76841 38.2692 7.31091C38.0412 6.85341 37.9272 6.31716 37.9272 5.70141C37.9272 5.08566 38.0412 4.55766 38.2692 4.09416C38.4972 3.63066 38.8167 3.26841 39.2277 3.00816C39.6387 2.74791 40.1195 2.61816 40.6715 2.61816C41.0067 2.61816 41.3307 2.67366 41.6457 2.78466C41.96 2.89491 42.242 3.06891 42.4917 3.30591C42.7415 3.54291 42.9387 3.84966 43.0827 4.22766C43.2267 4.60491 43.2987 5.06316 43.2987 5.60166V6.01116H38.5805V5.14491H42.167C42.167 4.84116 42.1055 4.57116 41.9817 4.33566C41.858 4.09941 41.6847 3.91341 41.462 3.77691C41.2392 3.64041 40.9782 3.57216 40.6797 3.57216C40.355 3.57216 40.0722 3.65166 39.8315 3.80991C39.5907 3.96816 39.4055 4.17441 39.275 4.42866C39.1445 4.68216 39.08 4.95741 39.08 5.25366V5.93016C39.08 6.32691 39.1505 6.66441 39.2907 6.94266C39.431 7.22091 39.6275 7.43316 39.8802 7.57791C40.133 7.72266 40.4277 7.79616 40.7652 7.79616C40.9842 7.79616 41.1837 7.76391 41.3645 7.70166C41.5445 7.63866 41.7005 7.54416 41.8317 7.41741C41.963 7.29066 42.0635 7.13541 42.1332 6.95016L43.2267 7.14666C43.139 7.46916 42.9822 7.75041 42.7572 7.99116C42.5322 8.23191 42.2495 8.41866 41.9112 8.55141C41.5722 8.68416 41.1867 8.75016 40.754 8.75016H40.7525Z" fill="white"/>
<path d="M46.8082 8.74631C46.3289 8.74631 45.9021 8.62331 45.5271 8.37731C45.1521 8.13131 44.8581 7.77956 44.6459 7.32206C44.4336 6.86456 44.3271 6.31556 44.3271 5.67431C44.3271 5.03306 44.4344 4.48406 44.6497 4.02806C44.8649 3.57206 45.1604 3.22256 45.5362 2.98031C45.9127 2.73806 46.3387 2.61731 46.8149 2.61731C47.1832 2.61731 47.4802 2.67881 47.7059 2.80106C47.9317 2.92331 48.1064 3.06581 48.2317 3.22781C48.3569 3.38981 48.4536 3.53306 48.5234 3.65681H48.5932V0.716064H49.7489V8.63081H48.6201V7.70756H48.5234C48.4536 7.83356 48.3539 7.97757 48.2241 8.14032C48.0944 8.30307 47.9159 8.44407 47.6887 8.56557C47.4622 8.68707 47.1682 8.74706 46.8074 8.74706L46.8082 8.74631ZM47.0631 7.76081C47.3954 7.76081 47.6766 7.67231 47.9076 7.49606C48.1379 7.31981 48.3134 7.07456 48.4334 6.75956C48.5534 6.44531 48.6127 6.07932 48.6127 5.66231C48.6127 5.24531 48.5534 4.88981 48.4349 4.58081C48.3164 4.27181 48.1424 4.03106 47.9129 3.85781C47.6834 3.68531 47.3999 3.59906 47.0624 3.59906C46.7249 3.59906 46.4249 3.68906 46.1932 3.86906C45.9614 4.04981 45.7867 4.29506 45.6697 4.60781C45.5527 4.91906 45.4934 5.27081 45.4934 5.66231C45.4934 6.05381 45.5527 6.41606 45.6712 6.73331C45.7897 7.04981 45.9651 7.30106 46.1984 7.48481C46.4316 7.66856 46.7196 7.76081 47.0624 7.76081H47.0631Z" fill="white"/>
<path d="M54.3711 8.63006V0.716064H55.5268V3.65681H55.5966C55.6633 3.53306 55.7601 3.39056 55.8861 3.22781C56.0121 3.06506 56.1876 2.92331 56.4118 2.80106C56.6361 2.67881 56.9323 2.61731 57.3006 2.61731C57.7798 2.61731 58.2073 2.73881 58.5838 2.98031C58.9603 3.22256 59.2558 3.57131 59.4711 4.02806C59.6863 4.48481 59.7936 5.03306 59.7936 5.67431C59.7936 6.31556 59.6863 6.86531 59.4726 7.32206C59.2588 7.77881 58.9648 8.13131 58.5913 8.37731C58.2178 8.62331 57.7918 8.74631 57.3126 8.74631C56.9518 8.74631 56.6578 8.68631 56.4298 8.56481C56.2018 8.44331 56.0233 8.30231 55.8943 8.13956C55.7653 7.97681 55.6663 7.83281 55.5966 7.70681H55.4998V8.63006H54.3711ZM55.5028 5.66231C55.5028 6.08006 55.5636 6.44606 55.6843 6.75956C55.8051 7.07381 55.9806 7.31906 56.2101 7.49606C56.4396 7.67306 56.7201 7.76081 57.0523 7.76081C57.3846 7.76081 57.6861 7.66856 57.9178 7.48481C58.1496 7.30106 58.3258 7.04981 58.4451 6.73331C58.5651 6.41606 58.6243 6.05981 58.6243 5.66231C58.6243 5.26481 58.5658 4.91906 58.4488 4.60781C58.3318 4.29581 58.1563 4.04981 57.9231 3.86906C57.6898 3.68906 57.3996 3.59906 57.0516 3.59906C56.7036 3.59906 56.4336 3.68531 56.2033 3.85781C55.9731 4.03031 55.7983 4.27106 55.6798 4.58081C55.5613 4.88981 55.5021 5.25056 55.5021 5.66231H55.5028Z" fill="white"/>
<path d="M61.6092 10.8411C61.4367 10.8411 61.2792 10.8276 61.1374 10.8006C60.9957 10.7736 60.8899 10.7443 60.8202 10.7136L61.0984 9.76706C61.4157 9.85481 61.6811 9.86156 61.8964 9.78806C62.1116 9.71456 62.2924 9.48581 62.4394 9.10181L62.5827 8.70806L60.4106 2.69531H61.6474L63.1504 7.30181H63.2119L64.7149 2.69531L65.9629 2.70656L63.5089 9.42281C63.3956 9.72956 63.2516 9.98831 63.0761 10.1998C62.9006 10.4113 62.6922 10.5711 62.4499 10.6791C62.2077 10.7878 61.9272 10.8418 61.6077 10.8418L61.6092 10.8411Z" fill="white"/>
</svg>
