<svg width="23" height="19" viewBox="0 0 23 19" fill="none" xmlns="http://www.w3.org/2000/svg">
<path fill-rule="evenodd" clip-rule="evenodd" d="M15.7 6.5C14.0431 6.5 12.7 7.84315 12.7 9.5C12.7 11.1569 14.0431 12.5 15.7 12.5H21.1V6.5H15.7ZM15.5 11C16.2732 11 16.9 10.3284 16.9 9.5C16.9 8.67157 16.2732 8 15.5 8C14.7268 8 14.1 8.67157 14.1 9.5C14.1 10.3284 14.7268 11 15.5 11Z" fill="#CACACE"/>
<path fill-rule="evenodd" clip-rule="evenodd" d="M19.5 2H3C2.17157 2 1.5 2.67157 1.5 3.5V15.5C1.5 16.3284 2.17157 17 3 17H19.5C20.3284 17 21 16.3284 21 15.5V3.5C21 2.67157 20.3284 2 19.5 2ZM3 0.5C1.34315 0.5 0 1.84315 0 3.5V15.5C0 17.1569 1.34315 18.5 3 18.5H19.5C21.1569 18.5 22.5 17.1569 22.5 15.5V3.5C22.5 1.84315 21.1569 0.5 19.5 0.5H3Z" fill="#CACACE"/>
</svg>
