<svg width="24" height="24" viewBox="0 0 24 24" fill="none" xmlns="http://www.w3.org/2000/svg">
<g clip-path="url(#clip0_12202_11078)">
<path d="M10.854 24H13.146C13.9714 24 14.5862 23.5079 14.7793 22.6994L15.2799 20.5376L15.7541 20.3706L17.6333 21.5306C18.3359 21.9788 19.1262 21.8821 19.7146 21.2934L21.2952 19.7027C21.8924 19.1139 21.9978 18.323 21.5499 17.6288L20.3732 15.7481L20.54 15.2912L22.7003 14.7902C23.4994 14.5969 24 13.973 24 13.1469V10.8971C24 10.0798 23.5082 9.45589 22.7003 9.26256L20.5576 8.74407L20.3819 8.26951L21.5587 6.39767C22.0065 5.69463 21.9012 4.92128 21.304 4.31491L19.7234 2.72429C19.1437 2.14427 18.3534 2.03882 17.6509 2.47821L15.7716 3.63824L15.2799 3.45368L14.7793 1.30062C14.5862 0.483341 13.9714 0 13.146 0H10.854C10.0285 0 9.41381 0.483341 9.22061 1.30062L8.72007 3.45368L8.21952 3.63824L6.34906 2.47821C5.64653 2.03882 4.85619 2.14427 4.27661 2.72429L2.68715 4.31491C2.09879 4.92128 1.99341 5.69463 2.44127 6.39767L3.618 8.26951L3.43359 8.74407L1.29967 9.26256C0.491766 9.45589 0 10.0798 0 10.8971V13.1469C0 13.973 0.500547 14.5969 1.29967 14.7902L3.45114 15.2912L3.62677 15.7481L2.45005 17.6288C2.00219 18.323 2.10757 19.1139 2.69594 19.7027L4.28539 21.2934C4.87376 21.8821 5.66409 21.9788 6.36662 21.5306L8.23708 20.3706L8.72007 20.5376L9.22061 22.6994C9.41381 23.5079 10.0285 24 10.854 24ZM11.0121 22.4885C10.775 22.4885 10.6432 22.3742 10.5993 22.1545L9.94071 19.3776C9.29087 19.2018 8.67616 18.9558 8.20197 18.6746L5.77825 20.186C5.59384 20.3091 5.40943 20.2827 5.2338 20.107L3.87266 18.7449C3.69703 18.5778 3.68825 18.4109 3.81118 18.2087L5.31283 15.7832C5.07573 15.3263 4.80351 14.7111 4.62788 14.0608L1.84412 13.4105C1.62458 13.3665 1.51043 13.2347 1.51043 12.9887V11.0465C1.51043 10.8005 1.6158 10.6774 1.84412 10.6247L4.6191 9.9656C4.79472 9.28892 5.10207 8.65618 5.29527 8.23436L3.80241 5.81767C3.67068 5.60675 3.67947 5.43098 3.8551 5.26402L5.22502 3.91066C5.40065 3.74368 5.56749 3.71733 5.77825 3.84036L8.1844 5.32554C8.6586 5.07068 9.30844 4.79824 9.94949 4.6225L10.5993 1.84548C10.6432 1.61699 10.775 1.51154 11.0121 1.51154H12.9879C13.2337 1.51154 13.3567 1.60821 13.4007 1.84548L14.0592 4.64007C14.7267 4.80704 15.315 5.07946 15.798 5.33432L18.2129 3.84036C18.4324 3.71733 18.5906 3.74368 18.7749 3.91066L20.1449 5.26402C20.3117 5.43098 20.3205 5.60675 20.1887 5.81767L18.6959 8.23436C18.9066 8.65618 19.2052 9.28013 19.3809 9.9656L22.1558 10.6247C22.3842 10.6774 22.4895 10.8005 22.4895 11.0465V12.9887C22.4895 13.2347 22.3753 13.3665 22.1558 13.4105L19.3721 14.0608C19.1964 14.7111 18.9331 15.3263 18.6784 15.7832L20.18 18.2087C20.3029 18.4109 20.2942 18.5778 20.1272 18.7449L18.7661 20.107C18.5817 20.2827 18.4061 20.3091 18.2129 20.186L15.7892 18.6746C15.3238 18.9558 14.7179 19.2018 14.0592 19.3776L13.4007 22.1545C13.3567 22.383 13.2337 22.4885 12.9879 22.4885H11.0121ZM12.0044 16.3281C14.3754 16.3281 16.3248 14.3771 16.3248 11.9957C16.3248 9.63165 14.3754 7.68071 12.0044 7.68071C9.63335 7.68071 7.66628 9.63165 7.66628 11.9957C7.66628 14.3683 9.62457 16.3281 12.0044 16.3281ZM12.0044 14.8254C10.4588 14.8254 9.1855 13.5511 9.1855 11.9957C9.1855 10.4665 10.4676 9.18346 12.0044 9.18346C13.5324 9.18346 14.8057 10.4665 14.8057 11.9957C14.8057 13.5424 13.5324 14.8254 12.0044 14.8254Z" fill="#CACACE"/>
</g>
<defs>
<clipPath id="clip0_12202_11078">
<rect width="24" height="24" fill="white"/>
</clipPath>
</defs>
</svg>
