<svg width="24" height="24" viewBox="0 0 24 24" fill="none" xmlns="http://www.w3.org/2000/svg">
<g clip-path="url(#clip0_12202_11085)">
<path d="M11.9954 23.9816C18.5643 23.9816 24 18.5501 24 11.9954C24 5.43153 18.5551 0 11.9862 0C5.42647 0 0 5.43153 0 11.9954C0 18.5501 5.4357 23.9816 11.9954 23.9816ZM11.9954 22.2692C6.30172 22.2692 1.72284 17.6847 1.72284 11.9954C1.72284 6.29689 6.29251 1.72152 11.9862 1.72152C17.689 1.72152 22.2771 6.29689 22.2771 11.9954C22.2771 17.6847 17.6982 22.2692 11.9954 22.2692Z" fill="#CACACE"/>
<path d="M9.88541 18.5869H14.7407C15.1645 18.5869 15.4961 18.2739 15.4961 17.8596C15.4961 17.4546 15.1645 17.1324 14.7407 17.1324H13.1192V10.6974C13.1192 10.1634 12.8428 9.79519 12.3268 9.79519H10.0605C9.63667 9.79519 9.30499 10.1082 9.30499 10.5133C9.30499 10.9275 9.63667 11.2405 10.0605 11.2405H11.5069V17.1324H9.88541C9.46162 17.1324 9.13916 17.4546 9.13916 17.8596C9.13916 18.2739 9.46162 18.5869 9.88541 18.5869ZM11.9123 7.69623C12.6954 7.69623 13.3034 7.07022 13.3034 6.30613C13.3034 5.52362 12.6954 4.89761 11.9123 4.89761C11.1384 4.89761 10.5211 5.52362 10.5211 6.30613C10.5211 7.07022 11.1384 7.69623 11.9123 7.69623Z" fill="#CACACE"/>
</g>
<defs>
<clipPath id="clip0_12202_11085">
<rect width="24" height="24" fill="white"/>
</clipPath>
</defs>
</svg>
