<svg width="65" height="20" viewBox="0 0 65 20" fill="none" xmlns="http://www.w3.org/2000/svg">
<g clip-path="url(#clip0_11695_617)">
<path d="M60.1958 0L46.1984 19.8214H50.4959L64.566 0H60.1958Z" fill="white"/>
<path d="M50.9435 0L55.062 5.84071L52.9132 9.02655L46.5565 0H50.9435Z" fill="url(#paint0_linear_11695_617)"/>
<path d="M60.6129 19.823L56.0468 13.3628L58.1956 10.2655L64.9104 19.823H60.6129Z" fill="url(#paint1_linear_11695_617)"/>
<path fill-rule="evenodd" clip-rule="evenodd" d="M41.1846 0H44.9449V19.8214H41.1846V19.0811C40.0985 19.6669 38.8517 20 37.5258 20C33.3162 20 29.9036 16.6421 29.9036 12.5C29.9036 8.35786 33.3162 5 37.5258 5C38.8517 5 40.0985 5.33311 41.1846 5.91892V0ZM37.4856 16.7083C39.8699 16.7083 41.8027 14.8065 41.8027 12.4605C41.8027 10.1145 39.8699 8.21271 37.4856 8.21271C35.1014 8.21271 33.1686 10.1145 33.1686 12.4605C33.1686 14.8065 35.1014 16.7083 37.4856 16.7083Z" fill="white"/>
<path d="M30.2777 0L16.2948 19.8214H20.6785L34.6479 0H30.2777Z" fill="white"/>
<path d="M20.6818 0L25.0689 6.0177L22.6515 9.38053L16.1157 0H20.6818Z" fill="url(#paint2_linear_11695_617)"/>
<path fill-rule="evenodd" clip-rule="evenodd" d="M11.281 0H15.0413V19.8214H11.281V19.0811C10.195 19.6669 8.94814 20 7.62224 20C3.41259 20 0 16.6421 0 12.5C0 8.35786 3.41259 5 7.62224 5C8.94814 5 10.195 5.33311 11.281 5.91892V0ZM7.5821 16.7083C9.96633 16.7083 11.8991 14.8065 11.8991 12.4605C11.8991 10.1145 9.96633 8.21271 7.5821 8.21271C5.19787 8.21271 3.26508 10.1145 3.26508 12.4605C3.26508 14.8065 5.19787 16.7083 7.5821 16.7083Z" fill="white"/>
</g>
<defs>
<linearGradient id="paint0_linear_11695_617" x1="49.9587" y1="1.23894" x2="55.7731" y2="8.34053" gradientUnits="userSpaceOnUse">
<stop stop-color="white"/>
<stop offset="1" stop-color="white" stop-opacity="0.55"/>
</linearGradient>
<linearGradient id="paint1_linear_11695_617" x1="61.5978" y1="18.3186" x2="54.4625" y2="8.58687" gradientUnits="userSpaceOnUse">
<stop stop-color="#6966FF"/>
<stop offset="1" stop-color="#6966FF" stop-opacity="0.36"/>
</linearGradient>
<linearGradient id="paint2_linear_11695_617" x1="19.697" y1="1.28752" x2="25.7237" y2="8.74341" gradientUnits="userSpaceOnUse">
<stop stop-color="white"/>
<stop offset="1" stop-color="white" stop-opacity="0.55"/>
</linearGradient>
<clipPath id="clip0_11695_617">
<rect width="65" height="20" fill="white"/>
</clipPath>
</defs>
</svg>
