<svg width="24" height="24" viewBox="0 0 24 24" fill="none" xmlns="http://www.w3.org/2000/svg">
<path fill-rule="evenodd" clip-rule="evenodd" d="M1.00421 1.00421C1.64719 0.361223 2.51926 0 3.42857 0H20.5714C21.4807 0 22.3528 0.361223 22.9958 1.00421C23.6388 1.64719 24 2.51926 24 3.42857V20.5714C24 21.4807 23.6388 22.3528 22.9958 22.9958C22.3528 23.6388 21.4807 24 20.5714 24H3.42857C2.51926 24 1.64719 23.6388 1.00421 22.9958C0.361223 22.3528 0 21.4807 0 20.5714V3.42857C0 2.51926 0.361223 1.64719 1.00421 1.00421ZM20.5714 8.49836C20.5753 8.94839 20.4025 9.38196 20.0902 9.70567L13.2331 16.5713C12.9116 16.893 12.4756 17.0738 12.0211 17.0738C11.5665 17.0738 11.1305 16.893 10.8091 16.5713L8.59249 14.352L6.37592 16.5713C6.21778 16.7352 6.02862 16.8659 5.81947 16.9559C5.61032 17.0459 5.38538 17.0932 5.15775 17.0952C4.93013 17.0972 4.7044 17.0537 4.49372 16.9674C4.28304 16.8811 4.09163 16.7537 3.93067 16.5925C3.76971 16.4314 3.64242 16.2397 3.55623 16.0288C3.47003 15.8179 3.42666 15.5918 3.42864 15.3639C3.43061 15.136 3.47791 14.9108 3.56775 14.7014C3.65759 14.492 3.78819 14.3026 3.95192 14.1443L7.38049 10.7115C7.70197 10.3897 8.13793 10.2089 8.59249 10.2089C9.04706 10.2089 9.48302 10.3897 9.80449 10.7115L12.0211 12.9308L17.6662 7.27869C17.9895 6.96603 18.4226 6.79303 18.872 6.79694C19.3215 6.80085 19.7515 6.98136 20.0693 7.2996C20.3872 7.61783 20.5675 8.04832 20.5714 8.49836Z" fill="#807E98"/>
</svg>
