<svg width="20" height="20" viewBox="0 0 20 20" fill="none" xmlns="http://www.w3.org/2000/svg">
<path d="M9.40286 3.18238C9.58435 2.59509 10.4157 2.59508 10.5971 3.18238L11.9295 7.49393C12.0104 7.75581 12.2525 7.93441 12.5266 7.93441H16.9023C17.5001 7.93441 17.7568 8.69314 17.2817 9.05606L13.6886 11.8009C13.4805 11.9599 13.3936 12.2319 13.4709 12.4821L14.8305 16.8818C15.0101 17.4631 14.3375 17.9324 13.8539 17.563L10.3794 14.9087C10.1554 14.7375 9.84459 14.7375 9.62059 14.9087L6.14607 17.563C5.66252 17.9324 4.98986 17.4631 5.16952 16.8818L6.52908 12.4821C6.60641 12.2319 6.5195 11.9599 6.31136 11.8009L2.71827 9.05606C2.2432 8.69314 2.49985 7.93441 3.09768 7.93441H7.47338C7.74748 7.93441 7.98959 7.75581 8.07052 7.49393L9.40286 3.18238Z" stroke="#CACACE"/>
</svg>
