<svg width="172" height="54" viewBox="0 0 172 54" fill="none" xmlns="http://www.w3.org/2000/svg">
<path fill-rule="evenodd" clip-rule="evenodd" d="M108.936 6.10352e-05H118.882V52.9385H108.936V50.9612C106.063 52.5258 102.765 53.4154 99.258 53.4154C88.1232 53.4154 79.0967 44.4474 79.0967 33.3847C79.0967 22.322 88.1232 13.3539 99.258 13.3539C102.765 13.3539 106.063 14.2436 108.936 15.8081V6.10352e-05ZM99.1518 44.624C105.458 44.624 110.571 39.5448 110.571 33.2792C110.571 27.0136 105.458 21.9343 99.1518 21.9343C92.8454 21.9343 87.733 27.0136 87.733 33.2792C87.733 39.5448 92.8454 44.624 99.1518 44.624Z" fill="black"/>
<path d="M80.0861 6.10352e-05L43.1005 52.9385H54.6956L91.6454 6.10352e-05H80.0861Z" fill="black"/>
<path d="M54.7045 6.10352e-05L66.3085 16.0719L59.9145 25.0533L42.6268 6.10352e-05H54.7045Z" fill="url(#paint0_linear_12141_115)"/>
<path fill-rule="evenodd" clip-rule="evenodd" d="M29.8389 6.10352e-05H39.7852V52.9385H29.8389V50.9612C26.9663 52.5258 23.6684 53.4154 20.1613 53.4154C9.02653 53.4154 0 44.4474 0 33.3847C0 22.322 9.02653 13.3539 20.1613 13.3539C23.6684 13.3539 26.9663 14.2436 29.8389 15.8081V6.10352e-05ZM20.0551 44.624C26.3615 44.624 31.4739 39.5448 31.4739 33.2792C31.4739 27.0136 26.3615 21.9343 20.0551 21.9343C13.7487 21.9343 8.63632 27.0136 8.63632 33.2792C8.63632 39.5448 13.7487 44.624 20.0551 44.624Z" fill="black"/>
<path d="M159.203 0L121.208 52.9958H132.873L171.065 0H159.203Z" fill="black"/>
<path d="M134.089 0L145.268 15.6161L139.435 24.1339L122.181 0H134.089Z" fill="url(#paint1_linear_12141_115)"/>
<path d="M160.335 52.9999L147.941 35.7276L153.773 27.4464L172 52.9999H160.335Z" fill="url(#paint2_linear_12141_115)"/>
<defs>
<linearGradient id="paint0_linear_12141_115" x1="52.0995" y1="3.43874" x2="68.2276" y2="23.1992" gradientUnits="userSpaceOnUse">
<stop/>
<stop offset="1" stop-color="white" stop-opacity="0.55"/>
</linearGradient>
<linearGradient id="paint1_linear_12141_115" x1="131.415" y1="3.3125" x2="146.913" y2="22.5294" gradientUnits="userSpaceOnUse">
<stop/>
<stop offset="1" stop-opacity="0.55"/>
</linearGradient>
<linearGradient id="paint2_linear_12141_115" x1="163.008" y1="48.9776" x2="144.019" y2="22.6847" gradientUnits="userSpaceOnUse">
<stop stop-color="#6966FF"/>
<stop offset="1" stop-color="#6966FF" stop-opacity="0.36"/>
</linearGradient>
</defs>
</svg>
