<svg width="16" height="17" viewBox="0 0 16 17" fill="none" xmlns="http://www.w3.org/2000/svg">
<g clip-path="url(#clip0_15412_92304)">
<path d="M13.0004 6.83752H7.90039C6.79582 6.83752 5.90039 7.73295 5.90039 8.83752V13.9375C5.90039 15.0421 6.79582 15.9375 7.90039 15.9375H13.0004C14.105 15.9375 15.0004 15.0421 15.0004 13.9375V8.83752C15.0004 7.73295 14.105 6.83752 13.0004 6.83752Z" stroke="#56565C" stroke-linecap="round" stroke-linejoin="round"/>
<path d="M3.1 11.0375H2.4C1.6268 11.0375 1 10.4107 1 9.6375V3.3375C1 2.5643 1.6268 1.9375 2.4 1.9375H8.7C9.4732 1.9375 10.1 2.5643 10.1 3.3375V4.0375" stroke="#56565C" stroke-linecap="round" stroke-linejoin="round"/>
</g>
<defs>
<clipPath id="clip0_15412_92304">
<rect width="16" height="16" fill="white" transform="translate(0 0.9375)"/>
</clipPath>
</defs>
</svg>
