<svg width="21" height="21" viewBox="0 0 21 21" fill="none" xmlns="http://www.w3.org/2000/svg">
<path d="M10.8258 20.4847C16.3926 20.4847 20.9991 15.9584 20.9991 10.4962C20.9991 5.02628 16.3848 0.5 10.818 0.5C5.25886 0.5 0.660156 5.02628 0.660156 10.4962C0.660156 15.9584 5.26668 20.4847 10.8258 20.4847ZM10.8258 19.0577C6.00059 19.0577 2.12019 15.2372 2.12019 10.4962C2.12019 5.74741 5.99279 1.9346 10.818 1.9346C15.6509 1.9346 19.539 5.74741 19.539 10.4962C19.539 15.2372 15.6587 19.0577 10.8258 19.0577Z" fill="#CACACE"/>
<path d="M5.42345 11.5012H10.8186C11.1621 11.5012 11.4275 11.2404 11.4275 10.9029V4.05971C11.4275 3.72983 11.1621 3.46899 10.8186 3.46899C10.4906 3.46899 10.2174 3.72983 10.2174 4.05971V10.3121H5.42345C5.07993 10.3121 4.82227 10.5729 4.82227 10.9029C4.82227 11.2404 5.07993 11.5012 5.42345 11.5012Z" fill="#CACACE"/>
</svg>
