<svg width="24" height="24" viewBox="0 0 24 24" fill="none" xmlns="http://www.w3.org/2000/svg">
<path fill-rule="evenodd" clip-rule="evenodd" d="M3.42857 0C2.51926 0 1.64719 0.361223 1.00421 1.00421C0.361223 1.64719 0 2.51926 0 3.42857V20.5714C0 21.4807 0.361223 22.3528 1.00421 22.9958C1.64719 23.6388 2.51926 24 3.42857 24H20.5714C21.4807 24 22.3528 23.6388 22.9958 22.9958C23.6388 22.3528 24 21.4807 24 20.5714V3.42857C24 2.51926 23.6388 1.64719 22.9958 1.00421C22.3528 0.361223 21.4807 0 20.5714 0H3.42857ZM18.8571 6.85714C18.8571 6.40249 18.6765 5.96645 18.355 5.64496C18.0335 5.32347 17.5975 5.14286 17.1429 5.14286C16.6882 5.14286 16.2522 5.32347 15.9307 5.64496C15.6092 5.96645 15.4286 6.40249 15.4286 6.85714V17.1429C15.4286 17.5975 15.6092 18.0335 15.9307 18.355C16.2522 18.6765 16.6882 18.8571 17.1429 18.8571C17.5975 18.8571 18.0335 18.6765 18.355 18.355C18.6765 18.0335 18.8571 17.5975 18.8571 17.1429V6.85714ZM13.7143 10.2857C13.7143 9.83106 13.5337 9.39502 13.2122 9.07353C12.8907 8.75204 12.4547 8.57143 12 8.57143C11.5453 8.57143 11.1093 8.75204 10.7878 9.07353C10.4663 9.39502 10.2857 9.83106 10.2857 10.2857V17.1429C10.2857 17.5975 10.4663 18.0335 10.7878 18.355C11.1093 18.6765 11.5453 18.8571 12 18.8571C12.4547 18.8571 12.8907 18.6765 13.2122 18.355C13.5337 18.0335 13.7143 17.5975 13.7143 17.1429V10.2857ZM8.57143 15.4286C8.57143 14.9739 8.39082 14.5379 8.06933 14.2164C7.74783 13.8949 7.3118 13.7143 6.85714 13.7143C6.40249 13.7143 5.96645 13.8949 5.64496 14.2164C5.32347 14.5379 5.14286 14.9739 5.14286 15.4286V17.1429C5.14286 17.5975 5.32347 18.0335 5.64496 18.355C5.96645 18.6765 6.40249 18.8571 6.85714 18.8571C7.3118 18.8571 7.74783 18.6765 8.06933 18.355C8.39082 18.0335 8.57143 17.5975 8.57143 17.1429V15.4286Z" fill="#807E98"/>
</svg>
