<svg width="20" height="20" viewBox="0 0 20 20" fill="none" xmlns="http://www.w3.org/2000/svg">
<path d="M17.666 10.9168C17.666 15.4999 14.4578 17.7915 10.6447 19.1206C10.445 19.1883 10.2281 19.185 10.0305 19.1114C6.20819 17.7915 3 15.4999 3 10.9168V4.50041C3 4.25731 3.09657 4.02416 3.26847 3.85226C3.44037 3.68036 3.67352 3.58379 3.91663 3.58379C5.74988 3.58379 8.04144 2.48383 9.63637 1.09056C9.83056 0.924653 10.0776 0.833496 10.333 0.833496C10.5884 0.833496 10.8355 0.924653 11.0296 1.09056C12.6337 2.493 14.9161 3.58379 16.7494 3.58379C16.9925 3.58379 17.2256 3.68036 17.3975 3.85226C17.5694 4.02416 17.666 4.25731 17.666 4.50041V10.9168Z" stroke="#CACACE" stroke-width="1.6" stroke-linecap="round" stroke-linejoin="round"/>
<path d="M7.58203 10.0002L9.41528 11.8335L13.0818 8.16699" stroke="#CACACE" stroke-width="1.6" stroke-linecap="round" stroke-linejoin="round"/>
</svg>
