<svg width="19" height="20" viewBox="0 0 19 20" fill="none" xmlns="http://www.w3.org/2000/svg">
<path fill-rule="evenodd" clip-rule="evenodd" d="M9.05375 0.574233C9.16236 0.48334 9.29902 0.433594 9.44012 0.433594C9.58122 0.433594 9.71789 0.48334 9.82649 0.574233C12.1032 2.48514 14.9353 3.595 17.8935 3.73558C18.0268 3.73972 18.1544 3.7909 18.2542 3.8802C18.354 3.96951 18.4195 4.09129 18.4394 4.22433C18.5181 4.82233 18.558 5.43183 18.558 6.05283C18.558 11.9891 14.8425 17.0503 9.62932 18.9972C9.5072 19.0426 9.37304 19.0426 9.25093 18.9972C4.03779 17.0503 0.322266 11.9891 0.322266 6.05168C0.322266 5.43298 0.362156 4.82233 0.440798 4.22433C0.460775 4.0911 0.526494 3.96917 0.626482 3.87984C0.72647 3.79051 0.854375 3.73946 0.987869 3.73558C3.94578 3.59443 6.77746 2.48532 9.05375 0.574233ZM13.8361 7.42133C13.9694 7.2362 14.0243 7.00521 13.9888 6.7792C13.9534 6.55318 13.8304 6.35064 13.6469 6.21613C13.4634 6.08163 13.2345 6.02618 13.0105 6.06198C12.7865 6.09778 12.5857 6.2219 12.4524 6.40703L8.48275 11.9155L6.34005 9.75353C6.26116 9.67119 6.16681 9.60553 6.0625 9.56038C5.95819 9.51523 5.84601 9.49149 5.73251 9.49055C5.61901 9.48961 5.50646 9.51148 5.40143 9.5549C5.2964 9.59832 5.20099 9.66241 5.12077 9.74343C5.04055 9.82445 4.97712 9.92078 4.93419 10.0268C4.89126 10.1328 4.86969 10.2464 4.87072 10.3609C4.87176 10.4754 4.8954 10.5886 4.94025 10.6938C4.98509 10.799 5.05026 10.8942 5.13194 10.9737L7.98127 13.8487C8.0686 13.9369 8.17384 14.0049 8.28973 14.0481C8.40562 14.0913 8.52941 14.1086 8.65258 14.0988C8.77575 14.0891 8.89536 14.0526 9.00318 13.9917C9.111 13.9309 9.20447 13.8471 9.27714 13.7463L13.8361 7.42133Z" fill="#888891"/>
</svg>
