<svg width="20" height="21" viewBox="0 0 20 21" fill="none" xmlns="http://www.w3.org/2000/svg">
<path d="M10 0.625C4.48665 0.625 0 5.11165 0 10.625C0 16.1384 4.48665 20.625 10 20.625C15.5134 20.625 20 16.1384 20 10.625C20 5.11165 15.5134 0.625 10 0.625ZM10 19.0865C5.33465 19.0865 1.53846 15.2904 1.53846 10.625C1.53846 5.95965 5.33465 2.16346 10 2.16346C14.6654 2.16346 18.4615 5.95965 18.4615 10.625C18.4615 15.2904 14.6654 19.0865 10 19.0865Z" fill="#888891"/>
<path d="M9.99987 7.66589C10.7066 7.66589 11.2816 8.24089 11.2816 8.94762C11.2816 9.37263 11.6258 9.71685 12.0508 9.71685C12.4758 9.71685 12.8201 9.37263 12.8201 8.94762C12.8201 7.65915 11.9518 6.56876 10.7691 6.23426V5.87079C10.7691 5.44578 10.4249 5.10156 9.99987 5.10156C9.57486 5.10156 9.23064 5.44578 9.23064 5.87079V6.23426C8.04795 6.56985 7.17969 7.65927 7.17969 8.94762C7.17969 10.4678 8.42008 11.0784 9.41718 11.5687L9.98737 11.8513C11.1739 12.436 11.2826 12.5379 11.2826 13.0504C11.2826 13.7571 10.7076 14.3321 10.0008 14.3321C9.2941 14.3321 8.71911 13.7571 8.71911 13.0504C8.71911 12.6254 8.37489 12.2812 7.94988 12.2812C7.52487 12.2812 7.18065 12.6254 7.18065 13.0504C7.18065 14.3389 8.04891 15.4292 9.2316 15.7637V16.1272C9.2316 16.5522 9.57582 16.8964 10.0008 16.8964C10.4258 16.8964 10.7701 16.5522 10.7701 16.1272V15.7637C11.9528 15.4282 12.821 14.3387 12.821 13.0504C12.821 11.534 11.871 11.0648 10.6681 10.4714L10.096 10.1878C9.11716 9.70703 8.71812 9.45991 8.71812 8.9474C8.71812 8.24066 9.29314 7.66589 9.99987 7.66589Z" fill="#888891"/>
</svg>
