<svg width="23" height="19" viewBox="0 0 23 19" fill="none" xmlns="http://www.w3.org/2000/svg">
<g clip-path="url(#clip0_12329_6828)">
<path d="M0 14.6311C0 15.0793 0.330275 15.3781 0.817825 15.3781H3.11403C4.74181 15.3781 5.67759 14.922 6.86501 13.538L12.8729 6.50003C13.7694 5.45416 14.5006 5.06883 15.6094 5.06883H17.6068V7.40435C17.6068 7.76608 17.8191 7.97054 18.1966 7.97054C18.3696 7.97054 18.5268 7.91549 18.6763 7.79753L22.4666 4.7071C22.789 4.45546 22.789 4.04655 22.4666 3.77918L18.6763 0.688748C18.5268 0.570793 18.3696 0.515747 18.1966 0.515747C17.8191 0.515747 17.6068 0.720203 17.6068 1.08193V3.57473H15.5859C13.9502 3.57473 13.0066 4.03868 11.827 5.42269L5.827 12.4528C4.93054 13.5066 4.21494 13.8841 3.16907 13.8841H0.817825C0.33814 13.8841 0 14.1986 0 14.6311ZM0 4.32964C0 4.77001 0.33814 5.0767 0.817825 5.0767H3.16907C4.22281 5.0767 4.9384 5.46202 5.827 6.50789L11.827 13.538C13.0066 14.922 13.9502 15.386 15.5859 15.386H17.6068V17.9338C17.6068 18.2956 17.8191 18.5 18.1966 18.5C18.3696 18.5 18.5268 18.445 18.6763 18.327L22.4666 15.2366C22.789 14.9849 22.789 14.5839 22.4666 14.3087L18.6763 11.2182C18.5268 11.1002 18.3696 11.0453 18.1966 11.0453C17.8191 11.0453 17.6068 11.2497 17.6068 11.6115V13.8919H15.6094C14.5006 13.8919 13.7694 13.5066 12.8729 12.4607L6.86501 5.43056C5.67759 4.04655 4.74181 3.58259 3.11403 3.58259H0.817825C0.330275 3.58259 0 3.88142 0 4.32964Z" fill="#CACACE"/>
</g>
<defs>
<clipPath id="clip0_12329_6828">
<rect width="22.7104" height="18" fill="white" transform="translate(0 0.5)"/>
</clipPath>
</defs>
</svg>
