<svg width="26" height="26" viewBox="0 0 26 26" fill="none" xmlns="http://www.w3.org/2000/svg">
<path d="M22.3333 1H3.66667C2.19391 1 1 2.19391 1 3.66667V22.3333C1 23.8061 2.19391 25 3.66667 25H22.3333C23.8061 25 25 23.8061 25 22.3333V3.66667C25 2.19391 23.8061 1 22.3333 1Z" stroke="white" stroke-width="2" stroke-linecap="round" stroke-linejoin="round"/>
<path d="M6.99967 7.66659C7.36786 7.66659 7.66634 7.36811 7.66634 6.99992C7.66634 6.63173 7.36786 6.33325 6.99967 6.33325C6.63148 6.33325 6.33301 6.63173 6.33301 6.99992C6.33301 7.36811 6.63148 7.66659 6.99967 7.66659Z" fill="white" stroke="white" stroke-width="2" stroke-linecap="round" stroke-linejoin="round"/>
<path d="M7.5332 7.53345L11.1332 11.1334" stroke="white" stroke-width="2" stroke-linecap="round" stroke-linejoin="round"/>
<path d="M18.9997 7.66659C19.3679 7.66659 19.6663 7.36811 19.6663 6.99992C19.6663 6.63173 19.3679 6.33325 18.9997 6.33325C18.6315 6.33325 18.333 6.63173 18.333 6.99992C18.333 7.36811 18.6315 7.66659 18.9997 7.66659Z" fill="white" stroke="white" stroke-width="2" stroke-linecap="round" stroke-linejoin="round"/>
<path d="M14.8662 11.1334L18.4662 7.53345" stroke="white" stroke-width="2" stroke-linecap="round" stroke-linejoin="round"/>
<path d="M6.99967 19.6666C7.36786 19.6666 7.66634 19.3681 7.66634 18.9999C7.66634 18.6317 7.36786 18.3333 6.99967 18.3333C6.63148 18.3333 6.33301 18.6317 6.33301 18.9999C6.33301 19.3681 6.63148 19.6666 6.99967 19.6666Z" fill="white" stroke="white" stroke-width="2" stroke-linecap="round" stroke-linejoin="round"/>
<path d="M7.5332 18.4667L11.1332 14.8667" stroke="white" stroke-width="2" stroke-linecap="round" stroke-linejoin="round"/>
<path d="M18.9997 19.6666C19.3679 19.6666 19.6663 19.3681 19.6663 18.9999C19.6663 18.6317 19.3679 18.3333 18.9997 18.3333C18.6315 18.3333 18.333 18.6317 18.333 18.9999C18.333 19.3681 18.6315 19.6666 18.9997 19.6666Z" fill="white" stroke="white" stroke-width="2" stroke-linecap="round" stroke-linejoin="round"/>
<path d="M14.8662 14.8667L18.4662 18.4667" stroke="white" stroke-width="2" stroke-linecap="round" stroke-linejoin="round"/>
<path d="M12.9997 15.6666C14.4724 15.6666 15.6663 14.4727 15.6663 12.9999C15.6663 11.5272 14.4724 10.3333 12.9997 10.3333C11.5269 10.3333 10.333 11.5272 10.333 12.9999C10.333 14.4727 11.5269 15.6666 12.9997 15.6666Z" stroke="white" stroke-width="2" stroke-linecap="round" stroke-linejoin="round"/>
</svg>
