<svg width="24" height="24" viewBox="0 0 24 24" fill="none" xmlns="http://www.w3.org/2000/svg">
<circle cx="12" cy="12" r="12" fill="#29AB6C"/>
<path d="M10.9737 18.3185C10.9737 18.8053 11.3684 19.2 11.8552 19.2H12.4202C12.9293 19.2 13.3421 18.7872 13.3421 18.2781C13.3421 17.8329 13.6642 17.4611 14.0865 17.3203C15.6607 16.7954 16.5 15.6335 16.5 14.2696C16.5 10.1217 10.3421 11.8435 10.3421 9.5739C10.3421 8.94781 10.8947 8.39999 12.0789 8.39999C12.714 8.39999 13.1979 8.57977 13.512 8.88371C13.8483 9.20916 14.2274 9.5739 14.6954 9.5739H15.114C15.7212 9.5739 16.2014 9.02474 15.9481 8.47286C15.5979 7.70977 14.984 7.08996 14.0705 6.72621C13.6576 6.5618 13.3421 6.18909 13.3421 5.74468C13.3421 5.22294 12.9192 4.79999 12.3974 4.79999H11.8599C11.3705 4.79999 10.9737 5.19676 10.9737 5.68621C10.9737 6.12229 10.6526 6.48409 10.2362 6.61355C8.84362 7.04647 7.89474 8.04635 7.89474 9.5739C7.89474 13.9565 14.0526 12.0782 14.0526 14.2696C14.0526 15.0522 13.5 15.6 12 15.6C11.2073 15.6 10.5914 15.3545 10.2235 14.9339C9.90568 14.5706 9.51786 14.1913 9.03515 14.1913H8.61134C8.01744 14.1913 7.53962 14.7169 7.75886 15.2689C8.18473 16.3411 9.06196 17.0562 10.2291 17.3962C10.6492 17.5185 10.9737 17.8809 10.9737 18.3185Z" fill="white"/>
</svg>
