<svg width="24" height="25" viewBox="0 0 24 25" fill="none" xmlns="http://www.w3.org/2000/svg">
<path fill-rule="evenodd" clip-rule="evenodd" d="M12 10C13.364 10 14.6721 9.47322 15.6365 8.53553C16.601 7.59785 17.1429 6.32608 17.1429 5C17.1429 3.67392 16.601 2.40215 15.6365 1.46447C14.6721 0.526784 13.364 0 12 0C10.636 0 9.32792 0.526784 8.36345 1.46447C7.39898 2.40215 6.85714 3.67392 6.85714 5C6.85714 6.32608 7.39898 7.59785 8.36345 8.53553C9.32792 9.47322 10.636 10 12 10ZM3 25C1.34315 25 -0.038269 23.6342 0.394065 22.0348C0.531794 21.5252 0.705165 21.0242 0.913446 20.5354C1.5165 19.1199 2.40042 17.8338 3.51472 16.7504C4.62902 15.6671 5.95189 14.8077 7.4078 14.2214C8.86371 13.6351 10.4241 13.3333 12 13.3333C13.5759 13.3333 15.1363 13.6351 16.5922 14.2214C18.0481 14.8077 19.371 15.6671 20.4853 16.7504C21.5996 17.8338 22.4835 19.1199 23.0866 20.5354C23.2948 21.0242 23.4682 21.5252 23.6059 22.0348C24.0383 23.6342 22.6569 25 21 25H3Z" fill="#807E98"/>
</svg>
