<svg width="37" height="30" viewBox="0 0 37 30" fill="none" xmlns="http://www.w3.org/2000/svg">
<path d="M6.80762 25.4087C6.5111 26.0635 5.91806 26.533 5.17676 26.533C3.95361 26.533 3.15053 25.6435 3.15053 24.6056C3.15053 24.025 3.48412 23.296 3.75593 22.6906L7.01766 15.0676L3.75593 7.4445C3.48412 6.8391 3.15053 6.0978 3.15053 5.52947C3.15053 4.49164 3.95361 3.60208 5.17676 3.60208C5.91806 3.60208 6.5111 4.07157 6.80762 4.72639L10.3412 12.9054C10.6871 13.7085 10.9589 14.3139 10.9589 15.0676C10.9589 15.8212 10.6871 16.4143 10.3412 17.2173L6.80762 25.4087Z" fill="white" fill-opacity="0.3"/>
<path d="M17.8076 25.4085C17.5111 26.0633 16.9181 26.5328 16.1768 26.5328C14.9536 26.5328 14.1505 25.6432 14.1505 24.6054C14.1505 24.0247 14.4841 23.2958 14.7559 22.6904L18.0177 15.0673L14.7559 7.44425C14.4841 6.83885 14.1505 6.09755 14.1505 5.52922C14.1505 4.4914 14.9536 3.60184 16.1768 3.60184C16.9181 3.60184 17.5111 4.07133 17.8076 4.72614L21.3412 12.9052C21.6871 13.7083 21.9589 14.3137 21.9589 15.0673C21.9589 15.821 21.6871 16.414 21.3412 17.2171L17.8076 25.4085Z" fill="white" fill-opacity="0.6"/>
<path d="M28.8076 25.4085C28.5111 26.0633 27.9181 26.5328 27.1768 26.5328C25.9536 26.5328 25.1505 25.6432 25.1505 24.6054C25.1505 24.0247 25.4841 23.2958 25.7559 22.6904L29.0177 15.0673L25.7559 7.44425C25.4841 6.83885 25.1505 6.09755 25.1505 5.52922C25.1505 4.4914 25.9536 3.60184 27.1768 3.60184C27.9181 3.60184 28.5111 4.07133 28.8076 4.72614L32.3412 12.9052C32.6871 13.7083 32.9589 14.3137 32.9589 15.0673C32.9589 15.821 32.6871 16.414 32.3412 17.2171L28.8076 25.4085Z" fill="white" fill-opacity="0.9"/>
</svg>
