<svg width="24" height="24" viewBox="0 0 24 24" fill="none" xmlns="http://www.w3.org/2000/svg">
<path d="M11.9954 23.9816C18.5643 23.9816 24 18.5501 24 11.9954C24 5.43153 18.5551 0 11.9862 0C5.42647 0 0 5.43153 0 11.9954C0 18.5501 5.4357 23.9816 11.9954 23.9816ZM11.9954 22.2692C6.30172 22.2692 1.72284 17.6847 1.72284 11.9954C1.72284 6.29689 6.29251 1.72152 11.9862 1.72152C17.689 1.72152 22.2771 6.29689 22.2771 11.9954C22.2771 17.6847 17.6982 22.2692 11.9954 22.2692Z" fill="#FF5C5C"/>
<path d="M7.87709 16.939C8.10741 16.939 8.3101 16.8561 8.47593 16.6811L11.9861 13.1645L15.5146 16.6811C15.6714 16.8469 15.874 16.939 16.1043 16.939C16.565 16.939 16.9335 16.5707 16.9335 16.1197C16.9335 15.8803 16.8413 15.6961 16.6755 15.5305L13.1561 12.0046L16.6847 8.46947C16.8598 8.29455 16.9427 8.11043 16.9427 7.88949C16.9427 7.4292 16.5742 7.07016 16.1136 7.07016C15.9017 7.07016 15.7173 7.15301 15.5423 7.32793L11.9861 10.863L8.45751 7.33713C8.29167 7.17143 8.10741 7.08857 7.87709 7.08857C7.41643 7.08857 7.05713 7.4384 7.05713 7.89869C7.05713 8.11964 7.14004 8.32217 7.30587 8.47867L10.8345 12.0046L7.30587 15.5397C7.14004 15.6961 7.05713 15.8895 7.05713 16.1197C7.05713 16.5707 7.41643 16.939 7.87709 16.939Z" fill="#FF5C5C"/>
</svg>
