<svg width="18" height="16" viewBox="0 0 18 16" fill="none" xmlns="http://www.w3.org/2000/svg">
<path fill-rule="evenodd" clip-rule="evenodd" d="M7.37636 1.8125C8.09761 0.5625 9.90136 0.5625 10.6239 1.8125L17.1189 13.0625C17.2834 13.3475 17.3701 13.6709 17.3701 14C17.3701 14.3291 17.2834 14.6524 17.1189 14.9375C16.9543 15.2225 16.7176 15.4592 16.4326 15.6238C16.1476 15.7883 15.8242 15.875 15.4951 15.875H2.50511C2.17588 15.8752 1.85239 15.7887 1.56719 15.6242C1.28198 15.4598 1.04512 15.2231 0.880409 14.938C0.715701 14.6529 0.628959 14.3295 0.628906 14.0003C0.628854 13.6711 0.715492 13.3476 0.880109 13.0625L7.37636 1.8125ZM9.00011 4C9.24875 4 9.48721 4.09877 9.66302 4.27459C9.83884 4.4504 9.93761 4.68886 9.93761 4.9375V8.6875C9.93761 8.93614 9.83884 9.1746 9.66302 9.35041C9.48721 9.52623 9.24875 9.625 9.00011 9.625C8.75147 9.625 8.51301 9.52623 8.3372 9.35041C8.16138 9.1746 8.06261 8.93614 8.06261 8.6875V4.9375C8.06261 4.68886 8.16138 4.4504 8.3372 4.27459C8.51301 4.09877 8.75147 4 9.00011 4ZM9.00011 14C9.33163 14 9.64957 13.8683 9.88399 13.6339C10.1184 13.3995 10.2501 13.0815 10.2501 12.75C10.2501 12.4185 10.1184 12.1005 9.88399 11.8661C9.64957 11.6317 9.33163 11.5 9.00011 11.5C8.66859 11.5 8.35065 11.6317 8.11623 11.8661C7.8818 12.1005 7.75011 12.4185 7.75011 12.75C7.75011 13.0815 7.8818 13.3995 8.11623 13.6339C8.35065 13.8683 8.66859 14 9.00011 14Z" fill="#FFCC48"/>
</svg>
